**** The.Bridge.To.Nowhere.2009.DVDRiP.XviD.NORDIC-Zen_Bud ****

Format                           : AVI
File size                        : 905 MiB
Duration                         : 1h 40mn
Overall bit rate                 : 1 253 Kbps

Video

Format                           : MPEG-4 Visual
Bit rate                         : 1 112 Kbps
Width                            : 720 pixels
Height                           : 576 pixels
Display aspect ratio             : 16:9
Stream size                      : 803 MiB (89%)
Writing library                  : XviD 1.1.2 (UTC 2006-11-01)

Audio

Format                           : MPEG Audio
Codec ID/Hint                    : MP3
Duration                         : 1h 40mn
Bit rate                         : 128 Kbps
Channel(s)                       : 2 channels
Sampling rate                    : 48.0 KHz
Stream size                      : 92.4 MiB (10%)
Language                         : English

Text #1
Language                         : Finnish

Text #2
Language                         : Norwegian

Text #3
Language                         : Swedish

Text #4
Language                         : Danish

**********************************************************************

Centers on the rise and fall of four blue-collar men who team with a destitute prostitute to create a high-priced escort service. 

**********************************************************************